<?xml version="1.0" encoding="UTF-8"?>
<svg version="1.1" xmlns="http://www.w3.org/2000/svg" width="512" height="512">
<path d="M0 0 C1.01790619 0.00215515 2.03581238 0.0043103 3.08456421 0.00653076 C17.69363523 0.05620146 32.02575853 0.30709809 46.375 3.3125 C47.34985352 3.51117676 48.32470703 3.70985352 49.32910156 3.91455078 C97.7109774 14.03517194 141.69928269 35.9516877 177.375 70.3125 C178.3640332 71.26068604 178.3640332 71.26068604 179.37304688 72.22802734 C188.86130305 81.37247479 197.6012044 90.66984009 205.375 101.3125 C206.23306152 102.46355017 207.09113451 103.61459177 207.94921875 104.765625 C213.98736829 112.95680614 219.34595521 121.47054105 224.375 130.3125 C224.73948242 130.94430176 225.10396484 131.57610352 225.47949219 132.22705078 C247.08534998 169.97532572 256.85198095 212.74189997 256.6875 255.9375 C256.68534485 256.95540619 256.6831897 257.97331238 256.68096924 259.02206421 C256.63129854 273.63113523 256.38040191 287.96325853 253.375 302.3125 C253.07698486 303.77478027 253.07698486 303.77478027 252.77294922 305.26660156 C242.65232806 353.6484774 220.7358123 397.63678269 186.375 433.3125 C185.74287598 433.97185547 185.11075195 434.63121094 184.45947266 435.31054688 C175.31502521 444.79880305 166.01765991 453.5387044 155.375 461.3125 C154.22394983 462.17056152 153.07290823 463.02863451 151.921875 463.88671875 C143.73224019 469.92427396 135.22961724 475.30707302 126.375 480.3125 C125.66778809 480.7146875 124.96057617 481.116875 124.23193359 481.53125 C101.09654164 494.5566741 75.92537591 503.30551461 49.9375 508.625 C49.21860596 508.77235596 48.49971191 508.91971191 47.7590332 509.0715332 C33.08339502 511.86090125 18.55831162 512.66142619 3.64770508 512.62817383 C0.70811513 512.6250221 -2.2304558 512.64854926 -5.16992188 512.67382812 C-18.54306192 512.71848737 -31.43916711 511.51301542 -44.625 509.3125 C-46.33055054 509.03031616 -46.33055054 509.03031616 -48.07055664 508.74243164 C-91.33802759 500.97044532 -132.38793216 480.98345309 -165.625 452.3125 C-166.37007813 451.67828125 -167.11515625 451.0440625 -167.8828125 450.390625 C-181.38779833 438.57948485 -194.05918743 425.82889772 -204.625 411.3125 C-205.48149066 410.16255169 -206.33826433 409.01281411 -207.1953125 407.86328125 C-213.23534209 399.67315742 -218.61867614 391.16870382 -223.625 382.3125 C-224.0271875 381.60528809 -224.429375 380.89807617 -224.84375 380.16943359 C-237.8691741 357.03404164 -246.61801461 331.86287591 -251.9375 305.875 C-252.08485596 305.15610596 -252.23221191 304.43721191 -252.3840332 303.6965332 C-255.35789088 288.05024391 -255.99800362 272.57681954 -255.9375 256.6875 C-255.93534485 255.66959381 -255.9331897 254.65168762 -255.93096924 253.60293579 C-255.88129854 238.99386477 -255.63040191 224.66174147 -252.625 210.3125 C-252.42632324 209.33764648 -252.22764648 208.36279297 -252.02294922 207.35839844 C-241.90232806 158.9765226 -219.9858123 114.98821731 -185.625 79.3125 C-184.99287598 78.65314453 -184.36075195 77.99378906 -183.70947266 77.31445312 C-174.56502521 67.82619695 -165.26765991 59.0862956 -154.625 51.3125 C-153.47394983 50.45443848 -152.32290823 49.59636549 -151.171875 48.73828125 C-142.98224019 42.70072604 -134.47961724 37.31792698 -125.625 32.3125 C-124.91778809 31.9103125 -124.21057617 31.508125 -123.48193359 31.09375 C-100.34654164 18.0683259 -75.17537591 9.31948539 -49.1875 4 C-48.46860596 3.85264404 -47.74971191 3.70528809 -47.0090332 3.5534668 C-31.36274391 0.57960912 -15.88931954 -0.06050362 0 0 Z " fill="#F2780C" transform="translate(255.625,-0.3125)"/>
<path d="M0 0 C0.9442836 -0.0049649 1.8885672 -0.00992981 2.86146545 -0.01504517 C5.96478015 -0.02956924 9.06804371 -0.03645304 12.17138672 -0.04199219 C13.7725062 -0.04623325 13.7725062 -0.04623325 15.40597153 -0.05056 C21.05662022 -0.0655144 26.70724364 -0.07476709 32.35791016 -0.07910156 C38.16095692 -0.08457547 43.96376779 -0.10859165 49.7667408 -0.13707352 C54.25892793 -0.15580405 58.75105946 -0.16091105 63.24328232 -0.16243744 C65.38086102 -0.16544186 67.51843927 -0.1733945 69.65597916 -0.18662262 C84.23428739 -0.27038999 97.9453233 0.11622858 111.41357422 6.41113281 C112.0808252 6.71414307 112.74807617 7.01715332 113.43554688 7.3293457 C136.07552223 17.87559656 153.42338197 35.40149337 162.21826172 58.89550781 C164.8247921 67.34147448 165.50182483 75.01019299 165.42138672 83.85253906 C165.41714188 85.63131691 165.41714188 85.63131691 165.41281128 87.44602966 C165.40168416 91.20533666 165.37659319 94.96439874 165.35107422 98.72363281 C165.34103478 101.28417623 165.33191062 103.84472341 165.32373047 106.40527344 C165.3017693 112.65730905 165.26836656 118.90920343 165.22607422 125.16113281 C166.23130127 125.15315674 167.23652832 125.14518066 168.2722168 125.13696289 C169.61751213 125.13050923 170.96280843 125.12425353 172.30810547 125.11816406 C173.62270752 125.11018799 174.93730957 125.10221191 176.29174805 125.09399414 C190.3890138 125.33456182 202.74149583 128.74136834 213.03466797 138.70410156 C224.99838853 152.11797007 227.70230591 170.76040024 227.65966797 188.13378906 C227.66490982 189.41813339 227.67015167 190.70247772 227.67555237 192.02574158 C227.68439905 194.72583975 227.68216286 197.42564095 227.67211914 200.12573242 C227.66296867 202.84544783 227.66976807 205.56430162 227.69262695 208.28393555 C227.96895433 241.36703947 223.51997551 269.55177914 200.05419922 294.49316406 C180.77342846 312.68206797 156.3303138 320.50125242 130.23046875 320.41992188 C128.75241932 320.42263803 127.27437124 320.42620245 125.79632568 320.43054199 C121.81272589 320.43959562 117.82923065 320.43615056 113.84562922 320.42978382 C109.65569961 320.42468528 105.46577838 320.42942609 101.27584839 320.43255615 C94.24019786 320.43618544 87.20458944 320.43142486 80.16894531 320.421875 C72.06475287 320.41100093 63.96066117 320.41451261 55.85647118 320.42552781 C48.86925881 320.43464049 41.88207655 320.43586634 34.89486015 320.43065047 C30.73459912 320.42755147 26.57438524 320.42706372 22.41412735 320.43372345 C18.49879304 320.43955422 14.58358694 320.43539667 10.6682663 320.42393494 C9.24176876 320.42131832 7.81526021 320.42200123 6.38876724 320.42646027 C-22.17133783 320.50741793 -46.2744449 312.45448413 -66.96142578 292.47363281 C-80.42671996 278.88671662 -88.86150564 260.97984759 -91.77392578 242.16113281 C-91.94574875 241.07408051 -92.11757172 239.9870282 -92.29460144 238.86703491 C-93.07905309 232.46743724 -92.93879679 226.02276401 -92.95092773 219.58544922 C-92.95720308 218.11595503 -92.96385081 216.6464624 -92.97084045 215.17697144 C-92.9917648 210.37222371 -93.00223543 205.56747612 -93.01220703 200.76269531 C-93.01625964 199.09891113 -93.02037671 197.4351271 -93.02455711 195.77134323 C-93.04358729 187.9470388 -93.05781999 180.12274364 -93.06616908 172.29842055 C-93.07591817 163.31410869 -93.10218572 154.33004472 -93.14266998 145.34582007 C-93.17300187 138.37133553 -93.1876542 131.39692135 -93.1909501 124.42237222 C-93.19328212 120.27131311 -93.20199734 116.12051941 -93.22741127 111.96953201 C-93.41613838 79.44732556 -89.37660724 50.1365298 -65.64111328 25.90722656 C-47.73626781 8.75858029 -24.61560423 0.03144895 0 0 Z " fill="#FEFEFE" transform="translate(188.77392578125,95.8388671875)"/>
<path d="M0 0 C1.08633224 -0.01142029 2.17266449 -0.02284058 3.29191589 -0.03460693 C4.47899139 -0.03684265 5.66606689 -0.03907837 6.88911438 -0.04138184 C8.14320602 -0.05131165 9.39729767 -0.06124146 10.68939209 -0.07147217 C14.12772867 -0.09567213 17.56582223 -0.11060155 21.004215 -0.11949348 C23.15514209 -0.12536398 25.30604807 -0.1335754 27.45696449 -0.14250183 C34.19470641 -0.16984323 40.93239983 -0.18917916 47.67019337 -0.19690561 C55.43286972 -0.20585749 63.19484005 -0.24091145 70.9573018 -0.2989068 C76.96682969 -0.34223735 82.9761597 -0.36231936 88.98584205 -0.36498785 C92.57065844 -0.36707765 96.15481081 -0.37875379 99.7394619 -0.41462708 C103.74420363 -0.45392482 107.74748189 -0.44497356 111.75239563 -0.43200684 C112.92934998 -0.4504364 114.10630432 -0.46886597 115.31892395 -0.487854 C122.95892139 -0.41052376 127.93540882 1.08010374 133.64424133 6.28088379 C138.44279537 11.7268006 140.02809291 16.44965352 139.91377258 23.58947754 C139.1533948 31.18223543 135.506518 36.01824608 129.83955383 40.87072754 C123.48794113 44.95067805 116.90242736 44.5772318 109.61543274 44.57141113 C107.80459953 44.58148697 107.80459953 44.58148697 105.95718384 44.59176636 C102.65744319 44.60747723 99.35795429 44.61411946 96.05819368 44.61539793 C93.99336332 44.61682297 91.92855906 44.62109922 89.8637352 44.62639236 C82.65090519 44.6448746 75.43814892 44.65306517 68.22529602 44.65148926 C61.51667589 44.65028805 54.80837757 44.67139071 48.09983885 44.70297658 C42.32722617 44.72918102 36.55471834 44.73985483 30.78204668 44.73857844 C27.33997602 44.73807006 23.89819164 44.74368378 20.45618057 44.76493454 C16.61460698 44.78800663 12.77347045 44.77877052 8.93183899 44.76672363 C7.80118515 44.77796265 6.67053131 44.78920166 5.50561523 44.80078125 C-2.24761531 44.73907748 -7.56849905 43.54030234 -13.59794617 38.35119629 C-18.86362263 32.07773486 -20.87502566 27.05775545 -20.66435242 18.80432129 C-19.83457705 12.01906956 -16.3095034 7.71597609 -11.13700867 3.50744629 C-7.35354242 0.90216471 -4.6245699 0.0291672 0 0 Z " fill="#F2780C" transform="translate(196.3557586669922,291.7191162109375)"/>
<path d="M0 0 C1.16205963 -0.01248528 1.16205963 -0.01248528 2.34759521 -0.02522278 C4.90211052 -0.04926431 7.45636997 -0.05808908 10.01098633 -0.06469727 C11.79592461 -0.07367032 13.58086215 -0.08279229 15.36579895 -0.09205627 C19.10732853 -0.10853456 22.84876877 -0.11624387 26.59033203 -0.11914062 C31.36391774 -0.12451332 36.13665278 -0.16215194 40.90999889 -0.20788479 C44.59826143 -0.23776502 48.2863222 -0.2448666 51.97469521 -0.24586678 C53.73322749 -0.25004985 55.49176144 -0.2624066 57.25017357 -0.28338432 C76.91573132 -0.49925764 76.91573132 -0.49925764 84.78239441 6.82008362 C89.97707169 12.67941452 90.6096669 17.39872904 90.46411133 25.04467773 C89.77922922 32.28362153 86.51255152 36.52955623 81.03442383 41.07983398 C76.19474877 44.23920606 71.68077536 44.61186187 66.01977539 44.62866211 C65.21420197 44.63859192 64.40862854 44.64852173 63.5786438 44.65875244 C60.92194152 44.68788551 58.26547814 44.70158143 55.60864258 44.71264648 C53.75404865 44.72415937 51.89945474 44.7356747 50.04486084 44.74719238 C46.15790707 44.76818162 42.27103564 44.77988669 38.3840332 44.78686523 C33.41966019 44.79782277 28.45638761 44.84586186 23.49235916 44.90280914 C19.66087739 44.94018449 15.82965735 44.95047953 11.99800873 44.95353699 C10.16885112 44.95956466 8.33969673 44.97553597 6.5107193 45.00190735 C-10.7146838 45.2325272 -10.7146838 45.2325272 -17.253479 40.00476074 C-22.86630747 34.01317886 -25.24464133 28.10156258 -25.11401367 19.93139648 C-24.36848327 12.67057863 -20.31301446 8.34311373 -14.94213867 3.75170898 C-10.14252826 0.44471485 -5.70753663 0.00524185 0 0 Z " fill="#F2780C" transform="translate(200.844482421875,175.693603515625)"/>
</svg>
